<svg width="38" height="38" viewBox="0 0 38 38" fill="none" xmlns="http://www.w3.org/2000/svg">
<g clip-path="url(#clip0_2157_26394)">
<path d="M22.045 22.1126C22.045 22.177 22.0678 22.2143 22.1096 22.2143C22.1438 22.2109 22.1742 22.1973 22.2008 22.1804L34.044 15.328C34.2442 15.2034 34.4839 15.1392 34.728 15.1451H37.3307C37.7296 15.1451 37.9994 15.3822 37.9994 15.7379V20.1684C37.9994 20.7036 37.8664 21.0152 37.3345 21.2997L34.177 22.9933C34.1456 23.0128 34.1088 23.0245 34.0706 23.0272C34.0326 23.0272 33.9947 23.0001 33.9947 22.9019V17.733C33.9947 17.672 33.9757 17.6314 33.9301 17.6314C33.8967 17.6348 33.8651 17.6465 33.8389 17.6652L25.1835 22.6783C24.9859 22.7969 24.7541 22.8612 24.5186 22.8578H18.7812C18.3785 22.8578 18.1125 22.6207 18.1125 22.2617V15.8768C18.1125 15.8294 18.0897 15.7853 18.0441 15.7853C18.0108 15.7891 17.9793 15.8008 17.9529 15.8192L12.2422 18.8745C12.1852 18.9083 12.17 18.932 12.17 18.9558C12.17 18.9761 12.1814 18.9964 12.2194 19.0337L16.3001 22.6681C16.3533 22.7156 16.3913 22.7528 16.3913 22.7935C16.3913 22.8273 16.3305 22.8544 16.2583 22.8544H12.5727C12.284 22.8544 12.0598 22.8172 11.904 22.6783L9.43051 20.4766C9.42113 20.4666 9.40954 20.4585 9.39647 20.4526C9.38339 20.4468 9.36911 20.4434 9.35451 20.4427C9.32769 20.4439 9.30159 20.4508 9.27852 20.4631L5.1446 22.6783C4.89383 22.8138 4.72285 22.8511 4.47588 22.8511H0.672522C0.265969 22.8544 0 22.614 0 22.2583V17.9125C0 17.3739 0.132985 17.0657 0.668722 16.7812L3.84515 15.0808C3.87007 15.0662 3.89898 15.058 3.92874 15.0571C3.97814 15.0571 4.00473 15.1011 4.00473 15.1993V21.0186C4.00473 21.0795 4.01993 21.1066 4.06933 21.1066C4.10352 21.1033 4.13392 21.0897 4.16432 21.0728L14.8943 15.3179C15.0994 15.1926 15.3502 15.1316 15.601 15.1417H21.3763C21.7753 15.1417 22.045 15.3789 22.045 15.7345L22.0412 22.1126H22.045Z" fill="#131E29"/>
</g>
<defs>
<clipPath id="clip0_2157_26394">
<rect width="38" height="38" fill="white"/>
</clipPath>
</defs>
</svg>
