<svg width="172" height="37" viewBox="0 0 172 37" fill="none" xmlns="http://www.w3.org/2000/svg">
<rect width="61" height="19" rx="9.5" fill="#CA0100"/>
<path d="M12.25 3.60156V15H10V6.19531L7.29688 7.05469V5.28125L12.0078 3.60156H12.25ZM23.6094 8.3125V10.2812C23.6094 11.1354 23.5182 11.8724 23.3359 12.4922C23.1536 13.1068 22.8906 13.612 22.5469 14.0078C22.2083 14.3984 21.8047 14.6875 21.3359 14.875C20.8672 15.0625 20.3464 15.1562 19.7734 15.1562C19.3151 15.1562 18.888 15.099 18.4922 14.9844C18.0964 14.8646 17.7396 14.6797 17.4219 14.4297C17.1094 14.1797 16.8385 13.8646 16.6094 13.4844C16.3854 13.099 16.2135 12.6406 16.0938 12.1094C15.974 11.5781 15.9141 10.9688 15.9141 10.2812V8.3125C15.9141 7.45833 16.0052 6.72656 16.1875 6.11719C16.375 5.5026 16.638 5 16.9766 4.60938C17.3203 4.21875 17.7266 3.93229 18.1953 3.75C18.6641 3.5625 19.1849 3.46875 19.7578 3.46875C20.2161 3.46875 20.6406 3.52865 21.0312 3.64844C21.4271 3.76302 21.7839 3.94271 22.1016 4.1875C22.4193 4.43229 22.6901 4.7474 22.9141 5.13281C23.138 5.51302 23.3099 5.96875 23.4297 6.5C23.5495 7.02604 23.6094 7.63021 23.6094 8.3125ZM21.3516 10.5781V8.00781C21.3516 7.59635 21.3281 7.23698 21.2812 6.92969C21.2396 6.6224 21.1745 6.36198 21.0859 6.14844C20.9974 5.92969 20.888 5.7526 20.7578 5.61719C20.6276 5.48177 20.4792 5.38281 20.3125 5.32031C20.1458 5.25781 19.9609 5.22656 19.7578 5.22656C19.5026 5.22656 19.276 5.27604 19.0781 5.375C18.8854 5.47396 18.7214 5.63281 18.5859 5.85156C18.4505 6.0651 18.3464 6.35156 18.2734 6.71094C18.2057 7.0651 18.1719 7.4974 18.1719 8.00781V10.5781C18.1719 10.9896 18.1927 11.3516 18.2344 11.6641C18.2812 11.9766 18.349 12.2448 18.4375 12.4688C18.5312 12.6875 18.6406 12.8672 18.7656 13.0078C18.8958 13.1432 19.0443 13.2422 19.2109 13.3047C19.3828 13.3672 19.5703 13.3984 19.7734 13.3984C20.0234 13.3984 20.2448 13.349 20.4375 13.25C20.6354 13.1458 20.8021 12.9844 20.9375 12.7656C21.0781 12.5417 21.1823 12.25 21.25 11.8906C21.3177 11.5312 21.3516 11.0938 21.3516 10.5781ZM34.9062 6.54688V8.3125H30.75V6.54688H34.9062ZM36.5547 6.54688V15H34.3047V6.54688H36.5547ZM30.1875 6.54688H32.3984L32.1719 10.8125C32.1406 11.4219 32.0755 11.9583 31.9766 12.4219C31.8776 12.8854 31.7448 13.2812 31.5781 13.6094C31.4167 13.9375 31.2214 14.2057 30.9922 14.4141C30.7682 14.6172 30.5052 14.7656 30.2031 14.8594C29.9062 14.9531 29.5781 15 29.2188 15H28.5312L28.5078 13.2266L28.7969 13.1953C28.9635 13.1797 29.1094 13.1328 29.2344 13.0547C29.3646 12.9714 29.474 12.8542 29.5625 12.7031C29.6562 12.5469 29.7344 12.3516 29.7969 12.1172C29.8594 11.8776 29.9089 11.5964 29.9453 11.2734C29.987 10.9505 30.0156 10.5781 30.0312 10.1562L30.1875 6.54688ZM42.1875 15.1562C41.5312 15.1562 40.9427 15.0521 40.4219 14.8438C39.901 14.6302 39.4583 14.3359 39.0938 13.9609C38.7344 13.5859 38.4583 13.151 38.2656 12.6562C38.0729 12.1562 37.9766 11.625 37.9766 11.0625V10.75C37.9766 10.1094 38.0677 9.52344 38.25 8.99219C38.4323 8.46094 38.6927 8 39.0312 7.60938C39.375 7.21875 39.7917 6.91927 40.2812 6.71094C40.7708 6.4974 41.3229 6.39062 41.9375 6.39062C42.5365 6.39062 43.0677 6.48958 43.5312 6.6875C43.9948 6.88542 44.3828 7.16667 44.6953 7.53125C45.013 7.89583 45.2526 8.33333 45.4141 8.84375C45.5755 9.34896 45.6562 9.91146 45.6562 10.5312V11.4688H38.9375V9.96875H43.4453V9.79688C43.4453 9.48438 43.388 9.20573 43.2734 8.96094C43.1641 8.71094 42.9974 8.51302 42.7734 8.36719C42.5495 8.22135 42.263 8.14844 41.9141 8.14844C41.6172 8.14844 41.362 8.21354 41.1484 8.34375C40.9349 8.47396 40.7604 8.65625 40.625 8.89062C40.4948 9.125 40.3958 9.40104 40.3281 9.71875C40.2656 10.0312 40.2344 10.375 40.2344 10.75V11.0625C40.2344 11.401 40.2812 11.7135 40.375 12C40.474 12.2865 40.612 12.5339 40.7891 12.7422C40.9714 12.9505 41.1901 13.112 41.4453 13.2266C41.7057 13.3411 42 13.3984 42.3281 13.3984C42.7344 13.3984 43.112 13.3203 43.4609 13.1641C43.8151 13.0026 44.1198 12.7604 44.375 12.4375L45.4688 13.625C45.2917 13.8802 45.0495 14.125 44.7422 14.3594C44.4401 14.5938 44.0755 14.7865 43.6484 14.9375C43.2214 15.0833 42.7344 15.1562 42.1875 15.1562ZM51.1484 6.54688V15H48.8906V6.54688H51.1484ZM53.8672 6.54688V8.28906H46.2109V6.54688H53.8672Z" fill="white"/>
<path d="M72.6562 6.54688V8.3125H68.5625V6.54688H72.6562ZM69.2109 6.54688V15H66.9609V6.54688H69.2109ZM74.2969 6.54688V15H72.0391V6.54688H74.2969ZM78.2812 8.17188V18.25H76.0312V6.54688H78.1172L78.2812 8.17188ZM83.6328 10.6797V10.8438C83.6328 11.4583 83.5599 12.0286 83.4141 12.5547C83.2734 13.0807 83.0651 13.5391 82.7891 13.9297C82.513 14.3151 82.1693 14.6172 81.7578 14.8359C81.3516 15.0495 80.8828 15.1562 80.3516 15.1562C79.8359 15.1562 79.388 15.0521 79.0078 14.8438C78.6276 14.6354 78.3073 14.3438 78.0469 13.9688C77.7917 13.5885 77.5859 13.1484 77.4297 12.6484C77.2734 12.1484 77.1536 11.612 77.0703 11.0391V10.6094C77.1536 9.99479 77.2734 9.43229 77.4297 8.92188C77.5859 8.40625 77.7917 7.96094 78.0469 7.58594C78.3073 7.20573 78.625 6.91146 79 6.70312C79.3802 6.49479 79.8255 6.39062 80.3359 6.39062C80.8724 6.39062 81.3438 6.49219 81.75 6.69531C82.1615 6.89844 82.5052 7.1901 82.7812 7.57031C83.0625 7.95052 83.2734 8.40365 83.4141 8.92969C83.5599 9.45573 83.6328 10.0391 83.6328 10.6797ZM81.375 10.8438V10.6797C81.375 10.3203 81.3438 9.98958 81.2812 9.6875C81.224 9.38021 81.1302 9.11198 81 8.88281C80.875 8.65365 80.7083 8.47656 80.5 8.35156C80.2969 8.22135 80.0495 8.15625 79.7578 8.15625C79.4505 8.15625 79.1875 8.20573 78.9688 8.30469C78.7552 8.40365 78.5807 8.54688 78.4453 8.73438C78.3099 8.92188 78.2083 9.14583 78.1406 9.40625C78.0729 9.66667 78.0312 9.96094 78.0156 10.2891V11.375C78.0417 11.7604 78.1146 12.1068 78.2344 12.4141C78.3542 12.7161 78.5391 12.9557 78.7891 13.1328C79.0391 13.3099 79.3672 13.3984 79.7734 13.3984C80.0703 13.3984 80.3203 13.3333 80.5234 13.2031C80.7266 13.0677 80.8906 12.8828 81.0156 12.6484C81.1458 12.4141 81.237 12.1432 81.2891 11.8359C81.3464 11.5286 81.375 11.1979 81.375 10.8438ZM88.9219 15.1562C88.2656 15.1562 87.6771 15.0521 87.1562 14.8438C86.6354 14.6302 86.1927 14.3359 85.8281 13.9609C85.4688 13.5859 85.1927 13.151 85 12.6562C84.8073 12.1562 84.7109 11.625 84.7109 11.0625V10.75C84.7109 10.1094 84.8021 9.52344 84.9844 8.99219C85.1667 8.46094 85.4271 8 85.7656 7.60938C86.1094 7.21875 86.526 6.91927 87.0156 6.71094C87.5052 6.4974 88.0573 6.39062 88.6719 6.39062C89.2708 6.39062 89.8021 6.48958 90.2656 6.6875C90.7292 6.88542 91.1172 7.16667 91.4297 7.53125C91.7474 7.89583 91.987 8.33333 92.1484 8.84375C92.3099 9.34896 92.3906 9.91146 92.3906 10.5312V11.4688H85.6719V9.96875H90.1797V9.79688C90.1797 9.48438 90.1224 9.20573 90.0078 8.96094C89.8984 8.71094 89.7318 8.51302 89.5078 8.36719C89.2839 8.22135 88.9974 8.14844 88.6484 8.14844C88.3516 8.14844 88.0964 8.21354 87.8828 8.34375C87.6693 8.47396 87.4948 8.65625 87.3594 8.89062C87.2292 9.125 87.1302 9.40104 87.0625 9.71875C87 10.0312 86.9688 10.375 86.9688 10.75V11.0625C86.9688 11.401 87.0156 11.7135 87.1094 12C87.2083 12.2865 87.3464 12.5339 87.5234 12.7422C87.7057 12.9505 87.9245 13.112 88.1797 13.2266C88.4401 13.3411 88.7344 13.3984 89.0625 13.3984C89.4688 13.3984 89.8464 13.3203 90.1953 13.1641C90.5495 13.0026 90.8542 12.7604 91.1094 12.4375L92.2031 13.625C92.026 13.8802 91.7839 14.125 91.4766 14.3594C91.1745 14.5938 90.8099 14.7865 90.3828 14.9375C89.9557 15.0833 89.4688 15.1562 88.9219 15.1562ZM97.8828 11.4688H95.2344L95.2188 9.99219H97.4062C97.6979 9.99219 97.9349 9.96354 98.1172 9.90625C98.2995 9.84375 98.4323 9.7526 98.5156 9.63281C98.6042 9.50781 98.6484 9.35677 98.6484 9.17969C98.6484 9.02344 98.6198 8.89062 98.5625 8.78125C98.5104 8.66667 98.4297 8.57292 98.3203 8.5C98.2109 8.42708 98.0729 8.375 97.9062 8.34375C97.7448 8.30729 97.5547 8.28906 97.3359 8.28906H96.0703V15H93.8203V6.54688H97.3359C97.888 6.54688 98.3828 6.59635 98.8203 6.69531C99.2578 6.78906 99.6302 6.93229 99.9375 7.125C100.25 7.31771 100.487 7.5625 100.648 7.85938C100.815 8.15104 100.898 8.4974 100.898 8.89844C100.898 9.15885 100.839 9.40365 100.719 9.63281C100.604 9.86198 100.432 10.0651 100.203 10.2422C99.974 10.4193 99.6901 10.5651 99.3516 10.6797C99.0182 10.7891 98.6328 10.8568 98.1953 10.8828L97.8828 11.4688ZM97.8828 15H94.6797L95.4531 13.2578H97.8828C98.1589 13.2578 98.3854 13.224 98.5625 13.1562C98.7396 13.0885 98.8698 12.9896 98.9531 12.8594C99.0417 12.724 99.0859 12.5625 99.0859 12.375C99.0859 12.1927 99.0469 12.0339 98.9688 11.8984C98.8906 11.763 98.763 11.6589 98.5859 11.5859C98.4141 11.5078 98.1797 11.4688 97.8828 11.4688H95.7812L95.7969 9.99219H98.1875L98.7344 10.5859C99.3281 10.6224 99.8177 10.7344 100.203 10.9219C100.589 11.1094 100.872 11.349 101.055 11.6406C101.242 11.9271 101.336 12.2422 101.336 12.5859C101.336 12.987 101.26 13.3385 101.109 13.6406C100.958 13.9427 100.734 14.1953 100.438 14.3984C100.146 14.5964 99.7865 14.7474 99.3594 14.8516C98.9323 14.9505 98.4401 15 97.8828 15ZM102.359 10.8594V10.6953C102.359 10.0755 102.448 9.50521 102.625 8.98438C102.802 8.45833 103.06 8.0026 103.398 7.61719C103.737 7.23177 104.154 6.93229 104.648 6.71875C105.143 6.5 105.711 6.39062 106.352 6.39062C106.992 6.39062 107.562 6.5 108.062 6.71875C108.562 6.93229 108.982 7.23177 109.32 7.61719C109.664 8.0026 109.924 8.45833 110.102 8.98438C110.279 9.50521 110.367 10.0755 110.367 10.6953V10.8594C110.367 11.474 110.279 12.0443 110.102 12.5703C109.924 13.0911 109.664 13.5469 109.32 13.9375C108.982 14.3229 108.565 14.6224 108.07 14.8359C107.576 15.0495 107.008 15.1562 106.367 15.1562C105.727 15.1562 105.156 15.0495 104.656 14.8359C104.161 14.6224 103.742 14.3229 103.398 13.9375C103.06 13.5469 102.802 13.0911 102.625 12.5703C102.448 12.0443 102.359 11.474 102.359 10.8594ZM104.609 10.6953V10.8594C104.609 11.2135 104.641 11.5443 104.703 11.8516C104.766 12.1589 104.865 12.4297 105 12.6641C105.141 12.8932 105.323 13.0729 105.547 13.2031C105.771 13.3333 106.044 13.3984 106.367 13.3984C106.68 13.3984 106.948 13.3333 107.172 13.2031C107.396 13.0729 107.576 12.8932 107.711 12.6641C107.846 12.4297 107.945 12.1589 108.008 11.8516C108.076 11.5443 108.109 11.2135 108.109 10.8594V10.6953C108.109 10.3516 108.076 10.0286 108.008 9.72656C107.945 9.41927 107.844 9.14844 107.703 8.91406C107.568 8.67448 107.388 8.48698 107.164 8.35156C106.94 8.21615 106.669 8.14844 106.352 8.14844C106.034 8.14844 105.763 8.21615 105.539 8.35156C105.32 8.48698 105.141 8.67448 105 8.91406C104.865 9.14844 104.766 9.41927 104.703 9.72656C104.641 10.0286 104.609 10.3516 104.609 10.6953ZM115.242 13.3984C115.518 13.3984 115.763 13.3464 115.977 13.2422C116.19 13.1328 116.357 12.9818 116.477 12.7891C116.602 12.5911 116.667 12.3594 116.672 12.0938H118.789C118.784 12.6875 118.625 13.2161 118.312 13.6797C118 14.138 117.581 14.5 117.055 14.7656C116.529 15.026 115.94 15.1562 115.289 15.1562C114.633 15.1562 114.06 15.0469 113.57 14.8281C113.086 14.6094 112.682 14.3073 112.359 13.9219C112.036 13.5312 111.794 13.0781 111.633 12.5625C111.471 12.0417 111.391 11.4844 111.391 10.8906V10.6641C111.391 10.0651 111.471 9.50781 111.633 8.99219C111.794 8.47135 112.036 8.01823 112.359 7.63281C112.682 7.24219 113.086 6.9375 113.57 6.71875C114.055 6.5 114.622 6.39062 115.273 6.39062C115.966 6.39062 116.573 6.52344 117.094 6.78906C117.62 7.05469 118.031 7.4349 118.328 7.92969C118.63 8.41927 118.784 9 118.789 9.67188H116.672C116.667 9.39062 116.607 9.13542 116.492 8.90625C116.383 8.67708 116.221 8.49479 116.008 8.35938C115.799 8.21875 115.542 8.14844 115.234 8.14844C114.906 8.14844 114.638 8.21875 114.43 8.35938C114.221 8.49479 114.06 8.68229 113.945 8.92188C113.831 9.15625 113.75 9.42448 113.703 9.72656C113.661 10.0234 113.641 10.3359 113.641 10.6641V10.8906C113.641 11.2188 113.661 11.5339 113.703 11.8359C113.745 12.138 113.823 12.4062 113.938 12.6406C114.057 12.875 114.221 13.0599 114.43 13.1953C114.638 13.3307 114.909 13.3984 115.242 13.3984ZM121.906 6.54688L123.305 9.11719L124.742 6.54688H127.141L124.75 10.6797L127.25 15H124.844L123.32 12.2812L121.797 15H119.391L121.891 10.6797L119.5 6.54688H121.906ZM127.609 10.8594V10.6953C127.609 10.0755 127.698 9.50521 127.875 8.98438C128.052 8.45833 128.31 8.0026 128.648 7.61719C128.987 7.23177 129.404 6.93229 129.898 6.71875C130.393 6.5 130.961 6.39062 131.602 6.39062C132.242 6.39062 132.812 6.5 133.312 6.71875C133.812 6.93229 134.232 7.23177 134.57 7.61719C134.914 8.0026 135.174 8.45833 135.352 8.98438C135.529 9.50521 135.617 10.0755 135.617 10.6953V10.8594C135.617 11.474 135.529 12.0443 135.352 12.5703C135.174 13.0911 134.914 13.5469 134.57 13.9375C134.232 14.3229 133.815 14.6224 133.32 14.8359C132.826 15.0495 132.258 15.1562 131.617 15.1562C130.977 15.1562 130.406 15.0495 129.906 14.8359C129.411 14.6224 128.992 14.3229 128.648 13.9375C128.31 13.5469 128.052 13.0911 127.875 12.5703C127.698 12.0443 127.609 11.474 127.609 10.8594ZM129.859 10.6953V10.8594C129.859 11.2135 129.891 11.5443 129.953 11.8516C130.016 12.1589 130.115 12.4297 130.25 12.6641C130.391 12.8932 130.573 13.0729 130.797 13.2031C131.021 13.3333 131.294 13.3984 131.617 13.3984C131.93 13.3984 132.198 13.3333 132.422 13.2031C132.646 13.0729 132.826 12.8932 132.961 12.6641C133.096 12.4297 133.195 12.1589 133.258 11.8516C133.326 11.5443 133.359 11.2135 133.359 10.8594V10.6953C133.359 10.3516 133.326 10.0286 133.258 9.72656C133.195 9.41927 133.094 9.14844 132.953 8.91406C132.818 8.67448 132.638 8.48698 132.414 8.35156C132.19 8.21615 131.919 8.14844 131.602 8.14844C131.284 8.14844 131.013 8.21615 130.789 8.35156C130.57 8.48698 130.391 8.67448 130.25 8.91406C130.115 9.14844 130.016 9.41927 129.953 9.72656C129.891 10.0286 129.859 10.3516 129.859 10.6953ZM137.961 6.54688H140.211L140.141 9.375C140.12 10.2812 140.016 11.0599 139.828 11.7109C139.641 12.362 139.391 12.9089 139.078 13.3516C138.766 13.7943 138.409 14.1484 138.008 14.4141C137.612 14.6745 137.195 14.8698 136.758 15H136.336L136.312 13.2656L136.547 13.2422C136.812 12.9661 137.031 12.6979 137.203 12.4375C137.375 12.1719 137.508 11.8932 137.602 11.6016C137.695 11.3099 137.763 10.9844 137.805 10.625C137.852 10.2656 137.88 9.84896 137.891 9.375L137.961 6.54688ZM138.57 6.54688H144.172V15H141.93V8.35156H138.57V6.54688ZM135.82 13.2422H145.383V17.5391H143.133V15H138.125V17.5391H135.82V13.2422ZM148.68 11.8594L151.516 6.54688H153.766V15H151.516V9.67969L148.68 15H146.43V6.54688H148.68V11.8594ZM160.641 12.4141L162.859 6.54688H164.695L161.398 15H159.883L156.602 6.54688H158.438L160.641 12.4141ZM157.898 6.54688V15H155.648V6.54688H157.898ZM163.438 15V6.54688H165.688V15H163.438ZM7.08594 30.4688H4.4375L4.42188 28.9922H6.60938C6.90104 28.9922 7.13802 28.9635 7.32031 28.9062C7.5026 28.8438 7.63542 28.7526 7.71875 28.6328C7.80729 28.5078 7.85156 28.3568 7.85156 28.1797C7.85156 28.0234 7.82292 27.8906 7.76562 27.7812C7.71354 27.6667 7.63281 27.5729 7.52344 27.5C7.41406 27.4271 7.27604 27.375 7.10938 27.3438C6.94792 27.3073 6.75781 27.2891 6.53906 27.2891H5.27344V34H3.02344V25.5469H6.53906C7.09115 25.5469 7.58594 25.5964 8.02344 25.6953C8.46094 25.7891 8.83333 25.9323 9.14062 26.125C9.45312 26.3177 9.6901 26.5625 9.85156 26.8594C10.0182 27.151 10.1016 27.4974 10.1016 27.8984C10.1016 28.1589 10.0417 28.4036 9.92188 28.6328C9.80729 28.862 9.63542 29.0651 9.40625 29.2422C9.17708 29.4193 8.89323 29.5651 8.55469 29.6797C8.22135 29.7891 7.83594 29.8568 7.39844 29.8828L7.08594 30.4688ZM7.08594 34H3.88281L4.65625 32.2578H7.08594C7.36198 32.2578 7.58854 32.224 7.76562 32.1562C7.94271 32.0885 8.07292 31.9896 8.15625 31.8594C8.24479 31.724 8.28906 31.5625 8.28906 31.375C8.28906 31.1927 8.25 31.0339 8.17188 30.8984C8.09375 30.763 7.96615 30.6589 7.78906 30.5859C7.61719 30.5078 7.38281 30.4688 7.08594 30.4688H4.98438L5 28.9922H7.39062L7.9375 29.5859C8.53125 29.6224 9.02083 29.7344 9.40625 29.9219C9.79167 30.1094 10.0755 30.349 10.2578 30.6406C10.4453 30.9271 10.5391 31.2422 10.5391 31.5859C10.5391 31.987 10.4635 32.3385 10.3125 32.6406C10.1615 32.9427 9.9375 33.1953 9.64062 33.3984C9.34896 33.5964 8.98958 33.7474 8.5625 33.8516C8.13542 33.9505 7.64323 34 7.08594 34ZM16.4844 32.0938V28.3281C16.4844 28.0573 16.4401 27.8255 16.3516 27.6328C16.263 27.4349 16.125 27.2812 15.9375 27.1719C15.7552 27.0625 15.5182 27.0078 15.2266 27.0078C14.9766 27.0078 14.7604 27.0521 14.5781 27.1406C14.3958 27.224 14.2552 27.3464 14.1562 27.5078C14.0573 27.6641 14.0078 27.849 14.0078 28.0625H11.7578C11.7578 27.7031 11.8411 27.362 12.0078 27.0391C12.1745 26.7161 12.4167 26.4323 12.7344 26.1875C13.0521 25.9375 13.4297 25.7422 13.8672 25.6016C14.3099 25.4609 14.8047 25.3906 15.3516 25.3906C16.0078 25.3906 16.5911 25.5 17.1016 25.7188C17.612 25.9375 18.013 26.2656 18.3047 26.7031C18.6016 27.1406 18.75 27.6875 18.75 28.3438V31.9609C18.75 32.4245 18.7786 32.8047 18.8359 33.1016C18.8932 33.3932 18.9766 33.6484 19.0859 33.8672V34H16.8125C16.7031 33.7708 16.6198 33.4844 16.5625 33.1406C16.5104 32.7917 16.4844 32.4427 16.4844 32.0938ZM16.7812 28.8516L16.7969 30.125H15.5391C15.2422 30.125 14.9844 30.1589 14.7656 30.2266C14.5469 30.2943 14.3672 30.3906 14.2266 30.5156C14.0859 30.6354 13.9818 30.776 13.9141 30.9375C13.8516 31.099 13.8203 31.276 13.8203 31.4688C13.8203 31.6615 13.8646 31.8359 13.9531 31.9922C14.0417 32.1432 14.1693 32.263 14.3359 32.3516C14.5026 32.4349 14.6979 32.4766 14.9219 32.4766C15.2604 32.4766 15.5547 32.4089 15.8047 32.2734C16.0547 32.138 16.2474 31.9714 16.3828 31.7734C16.5234 31.5755 16.5964 31.388 16.6016 31.2109L17.1953 32.1641C17.112 32.3776 16.9974 32.599 16.8516 32.8281C16.7109 33.0573 16.5312 33.2734 16.3125 33.4766C16.0938 33.6745 15.8307 33.8385 15.5234 33.9688C15.2161 34.0938 14.8516 34.1562 14.4297 34.1562C13.8932 34.1562 13.4062 34.0495 12.9688 33.8359C12.5365 33.6172 12.1927 33.3177 11.9375 32.9375C11.6875 32.5521 11.5625 32.1146 11.5625 31.625C11.5625 31.1823 11.6458 30.7891 11.8125 30.4453C11.9792 30.1016 12.224 29.8125 12.5469 29.5781C12.875 29.3385 13.2839 29.1589 13.7734 29.0391C14.263 28.9141 14.8307 28.8516 15.4766 28.8516H16.7812ZM20.4766 25.5469H22.7266V32.2422H25.0625V25.5469H27.3281V32.2422H29.6562V25.5469H31.9062V34H20.4766V25.5469ZM35.9609 30.8594L38.7969 25.5469H41.0469V34H38.7969V28.6797L35.9609 34H33.7109V25.5469H35.9609V30.8594ZM46.4062 29.8594V29.6953C46.4062 29.0755 46.4948 28.5052 46.6719 27.9844C46.849 27.4583 47.1068 27.0026 47.4453 26.6172C47.7839 26.2318 48.2005 25.9323 48.6953 25.7188C49.1901 25.5 49.7578 25.3906 50.3984 25.3906C51.0391 25.3906 51.6094 25.5 52.1094 25.7188C52.6094 25.9323 53.0286 26.2318 53.3672 26.6172C53.7109 27.0026 53.9714 27.4583 54.1484 27.9844C54.3255 28.5052 54.4141 29.0755 54.4141 29.6953V29.8594C54.4141 30.474 54.3255 31.0443 54.1484 31.5703C53.9714 32.0911 53.7109 32.5469 53.3672 32.9375C53.0286 33.3229 52.612 33.6224 52.1172 33.8359C51.6224 34.0495 51.0547 34.1562 50.4141 34.1562C49.7734 34.1562 49.2031 34.0495 48.7031 33.8359C48.2083 33.6224 47.7891 33.3229 47.4453 32.9375C47.1068 32.5469 46.849 32.0911 46.6719 31.5703C46.4948 31.0443 46.4062 30.474 46.4062 29.8594ZM48.6562 29.6953V29.8594C48.6562 30.2135 48.6875 30.5443 48.75 30.8516C48.8125 31.1589 48.9115 31.4297 49.0469 31.6641C49.1875 31.8932 49.3698 32.0729 49.5938 32.2031C49.8177 32.3333 50.0911 32.3984 50.4141 32.3984C50.7266 32.3984 50.9948 32.3333 51.2188 32.2031C51.4427 32.0729 51.6224 31.8932 51.7578 31.6641C51.8932 31.4297 51.9922 31.1589 52.0547 30.8516C52.1224 30.5443 52.1562 30.2135 52.1562 29.8594V29.6953C52.1562 29.3516 52.1224 29.0286 52.0547 28.7266C51.9922 28.4193 51.8906 28.1484 51.75 27.9141C51.6146 27.6745 51.4349 27.487 51.2109 27.3516C50.987 27.2161 50.7161 27.1484 50.3984 27.1484C50.0807 27.1484 49.8099 27.2161 49.5859 27.3516C49.3672 27.487 49.1875 27.6745 49.0469 27.9141C48.9115 28.1484 48.8125 28.4193 48.75 28.7266C48.6875 29.0286 48.6562 29.3516 48.6562 29.6953ZM58.6094 30.8125L55.0938 25.5469H57.8828L59.6797 28.7344H61.2969L61.0234 30.8125H58.6094ZM59.7109 30.4297L57.7812 34H55.0703L57.875 29.3438L59.7109 30.4297ZM62.7578 25.5469V34H60.5078V25.5469H62.7578ZM68.1953 25.5469L64.6797 30.8125H62.2656L61.9922 28.7344H63.6094L65.3984 25.5469H68.1953ZM65.5 34L63.5703 30.4297L65.4766 29.3438L68.2656 34H65.5ZM71.6016 30.8594L74.4375 25.5469H76.6875V34H74.4375V28.6797L71.6016 34H69.3516V25.5469H71.6016V30.8594ZM79.9453 25.5469H82.1953L82.125 28.375C82.1042 29.2812 82 30.0599 81.8125 30.7109C81.625 31.362 81.375 31.9089 81.0625 32.3516C80.75 32.7943 80.3932 33.1484 79.9922 33.4141C79.5964 33.6745 79.1797 33.8698 78.7422 34H78.3203L78.2969 32.2656L78.5312 32.2422C78.7969 31.9661 79.0156 31.6979 79.1875 31.4375C79.3594 31.1719 79.4922 30.8932 79.5859 30.6016C79.6797 30.3099 79.7474 29.9844 79.7891 29.625C79.8359 29.2656 79.8646 28.849 79.875 28.375L79.9453 25.5469ZM80.5547 25.5469H86.1562V34H83.9141V27.3516H80.5547V25.5469ZM77.8047 32.2422H87.3672V36.5391H85.1172V34H80.1094V36.5391H77.8047V32.2422ZM93.0781 32.0938V28.3281C93.0781 28.0573 93.0339 27.8255 92.9453 27.6328C92.8568 27.4349 92.7188 27.2812 92.5312 27.1719C92.349 27.0625 92.112 27.0078 91.8203 27.0078C91.5703 27.0078 91.3542 27.0521 91.1719 27.1406C90.9896 27.224 90.849 27.3464 90.75 27.5078C90.651 27.6641 90.6016 27.849 90.6016 28.0625H88.3516C88.3516 27.7031 88.4349 27.362 88.6016 27.0391C88.7682 26.7161 89.0104 26.4323 89.3281 26.1875C89.6458 25.9375 90.0234 25.7422 90.4609 25.6016C90.9036 25.4609 91.3984 25.3906 91.9453 25.3906C92.6016 25.3906 93.1849 25.5 93.6953 25.7188C94.2057 25.9375 94.6068 26.2656 94.8984 26.7031C95.1953 27.1406 95.3438 27.6875 95.3438 28.3438V31.9609C95.3438 32.4245 95.3724 32.8047 95.4297 33.1016C95.487 33.3932 95.5703 33.6484 95.6797 33.8672V34H93.4062C93.2969 33.7708 93.2135 33.4844 93.1562 33.1406C93.1042 32.7917 93.0781 32.4427 93.0781 32.0938ZM93.375 28.8516L93.3906 30.125H92.1328C91.8359 30.125 91.5781 30.1589 91.3594 30.2266C91.1406 30.2943 90.9609 30.3906 90.8203 30.5156C90.6797 30.6354 90.5755 30.776 90.5078 30.9375C90.4453 31.099 90.4141 31.276 90.4141 31.4688C90.4141 31.6615 90.4583 31.8359 90.5469 31.9922C90.6354 32.1432 90.763 32.263 90.9297 32.3516C91.0964 32.4349 91.2917 32.4766 91.5156 32.4766C91.8542 32.4766 92.1484 32.4089 92.3984 32.2734C92.6484 32.138 92.8411 31.9714 92.9766 31.7734C93.1172 31.5755 93.1901 31.388 93.1953 31.2109L93.7891 32.1641C93.7057 32.3776 93.5911 32.599 93.4453 32.8281C93.3047 33.0573 93.125 33.2734 92.9062 33.4766C92.6875 33.6745 92.4245 33.8385 92.1172 33.9688C91.8099 34.0938 91.4453 34.1562 91.0234 34.1562C90.487 34.1562 90 34.0495 89.5625 33.8359C89.1302 33.6172 88.7865 33.3177 88.5312 32.9375C88.2812 32.5521 88.1562 32.1146 88.1562 31.625C88.1562 31.1823 88.2396 30.7891 88.4062 30.4453C88.5729 30.1016 88.8177 29.8125 89.1406 29.5781C89.4688 29.3385 89.8776 29.1589 90.3672 29.0391C90.8568 28.9141 91.4245 28.8516 92.0703 28.8516H93.375ZM102.867 28.9609V30.7109H98.5703V28.9609H102.867ZM99.3203 25.5469V34H97.0703V25.5469H99.3203ZM104.391 25.5469V34H102.133V25.5469H104.391ZM108.383 30.8594L111.219 25.5469H113.469V34H111.219V28.6797L108.383 34H106.133V25.5469H108.383V30.8594ZM117.023 29.7812H119.305L116.953 34H114.68L117.023 29.7812ZM118.539 25.5469H122.25V34H120V27.2891H118.539C118.232 27.2891 117.977 27.3464 117.773 27.4609C117.57 27.5703 117.419 27.7135 117.32 27.8906C117.227 28.0625 117.18 28.2396 117.18 28.4219C117.18 28.599 117.227 28.7708 117.32 28.9375C117.414 29.1042 117.56 29.2422 117.758 29.3516C117.956 29.4609 118.203 29.5156 118.5 29.5156H120.836V31.0469H118.5C117.943 31.0469 117.443 30.9792 117 30.8438C116.562 30.7083 116.188 30.5208 115.875 30.2812C115.568 30.0365 115.331 29.7526 115.164 29.4297C115.003 29.1016 114.922 28.7422 114.922 28.3516C114.922 27.9453 115.005 27.5729 115.172 27.2344C115.339 26.8958 115.578 26.599 115.891 26.3438C116.203 26.0885 116.581 25.8932 117.023 25.7578C117.471 25.6172 117.977 25.5469 118.539 25.5469Z" fill="#262626"/>
</svg>
